<svg width="1728" height="202" viewBox="0 0 1728 202" fill="none"
  xmlns="http://www.w3.org/2000/svg">
  <path
    d="M0 154.489L60.7333 135.323C121.467 116.158 242.933 77.8268 364.4 45.8444C485.867 14.3411 607.333 -12.0114 728.8 7.51339C850.267 26.3195 971.733 91.003 1093.2 109.809C1214.67 129.334 1336.13 102.981 1457.6 109.809C1579.07 116.158 1700.53 154.489 1761.27 173.654L1822 192.82H1761.27C1700.53 192.82 1579.07 192.82 1457.6 192.82C1336.13 192.82 1214.67 192.82 1093.2 192.82C971.733 192.82 850.267 192.82 728.8 192.82C607.333 192.82 485.867 192.82 364.4 192.82C242.933 192.82 121.467 192.82 60.7333 192.82H0V154.489Z"
    fill="url(#paint0_linear_109_36)" />
  <path
    d="M1728 350.82L1670.4 366.82C1612.8 382.82 1497.6 414.82 1382.4 398.82C1267.2 382.82 1152 318.82 1036.8 276.12C921.6 233.82 806.4 211.82 691.2 244.12C576 275.82 460.8 361.82 345.6 377.52C230.4 393.82 115.2 339.82 57.6001 313.52L-1.90735e-05 286.82V190.82H57.6001C115.2 190.82 230.4 190.82 345.6 190.82C460.8 190.82 576 190.82 691.2 190.82C806.4 190.82 921.6 190.82 1036.8 190.82C1152 190.82 1267.2 190.82 1382.4 190.82C1497.6 190.82 1612.8 190.82 1670.4 190.82H1728V350.82Z"
    fill="url(#paint1_linear_109_36)" />
  <defs>
    <linearGradient id="paint0_linear_109_36" x1="1.38972e-06" y1="131.431" x2="1794.49" y2="128.191"
      gradientUnits="userSpaceOnUse">
      <stop stop-color="#FC9B55" />
      <stop offset="1" stop-color="#FDB01D" />
    </linearGradient>
    <linearGradient id="paint1_linear_109_36" x1="-2.39114e-05" y1="231.319" x2="1728" y2="246.819"
      gradientUnits="userSpaceOnUse">
      <stop stop-color="#FC9B55" />
      <stop offset="1" stop-color="#FDB01D" />
    </linearGradient>
  </defs>
</svg>